<?xml version="1.0" standalone="no"?>
<!DOCTYPE svg PUBLIC "-//W3C//DTD SVG 20010904//EN"
 "http://www.w3.org/TR/2001/REC-SVG-20010904/DTD/svg10.dtd">
<svg version="1.0" xmlns="http://www.w3.org/2000/svg"
 width="700.000000pt" height="700.000000pt" viewBox="0 0 700.000000 700.000000"
 preserveAspectRatio="xMidYMid meet">
<metadata>
Created by potrace 1.14, written by Peter Selinger 2001-2017
</metadata>
<g transform="translate(0.000000,700.000000) scale(0.100000,-0.100000)"
fill="#000000" stroke="none">
<path d="M3427 5834 c-1 -1 -110 -5 -242 -8 -245 -7 -293 -10 -425 -21 -41 -3
-97 -8 -125 -10 -83 -7 -173 -16 -197 -20 -13 -2 -45 -6 -73 -10 -58 -7 -249
-34 -285 -40 -71 -13 -93 -17 -185 -36 -129 -27 -113 -23 -240 -58 -60 -17
-135 -40 -165 -51 -30 -12 -59 -22 -65 -24 -5 -1 -36 -14 -69 -29 -32 -15 -60
-27 -63 -27 -12 0 -123 -77 -157 -109 -43 -40 -75 -102 -76 -144 0 -57 52
-130 137 -188 55 -38 183 -100 263 -128 36 -13 74 -27 85 -31 40 -16 299 -82
370 -94 17 -3 82 -14 145 -25 63 -12 133 -23 155 -26 22 -3 51 -7 65 -10 14
-2 45 -7 70 -10 25 -3 61 -7 80 -10 69 -9 136 -16 195 -20 33 -2 83 -6 110 -9
44 -4 154 -11 355 -22 92 -5 728 -5 830 0 47 3 123 7 170 10 276 18 236 15
475 41 269 30 632 97 790 145 381 117 556 224 581 357 29 155 -228 316 -682
428 -98 24 -317 68 -399 80 -22 3 -67 10 -100 15 -33 5 -102 14 -153 20 -52 6
-108 12 -125 15 -18 2 -63 7 -102 10 -38 2 -101 7 -140 10 -141 11 -194 14
-375 21 -177 6 -430 10 -433 8z"/>
<path d="M1593 4340 c-13 -5 -23 -7 -23 -5 0 3 -18 -5 -39 -18 -92 -52 -172
-153 -243 -305 -59 -127 -57 -124 -108 -287 -5 -16 -20 -79 -33 -140 -22 -99
-32 -150 -42 -225 -2 -14 -6 -44 -10 -67 -36 -227 -41 -739 -10 -983 2 -19 6
-56 9 -83 3 -26 8 -64 12 -85 4 -20 8 -46 10 -57 2 -11 9 -47 15 -80 32 -178
95 -378 165 -520 129 -263 286 -366 447 -292 239 110 426 612 474 1267 13 185
6 648 -12 739 -2 10 -6 42 -10 72 -5 45 -28 186 -52 314 -11 64 -76 274 -110
354 -82 200 -184 336 -287 385 -42 20 -124 28 -153 16z"/>
<path d="M5277 4332 c-129 -45 -258 -229 -352 -502 -19 -58 -35 -105 -35 -105
1 0 -1 -7 -3 -15 -10 -34 -47 -208 -53 -245 -3 -22 -9 -58 -14 -80 -5 -22 -11
-71 -15 -110 -4 -38 -8 -81 -11 -95 -24 -153 -23 -718 1 -861 2 -13 6 -46 9
-73 47 -414 185 -810 339 -968 160 -165 317 -145 474 58 64 82 180 345 208
473 2 9 15 66 29 126 14 61 27 126 30 145 3 19 10 67 16 105 40 263 48 791 15
1020 -2 17 -6 55 -10 85 -8 76 -32 209 -55 310 -12 47 -23 94 -25 105 -15 63
-73 222 -110 301 -126 269 -277 382 -438 326z"/>
<path d="M3409 4117 c-104 -39 -227 -190 -300 -369 -17 -40 -34 -82 -39 -93
-28 -66 -87 -294 -106 -415 -3 -19 -7 -45 -9 -56 -2 -12 -6 -48 -10 -80 -4
-33 -9 -70 -11 -84 -20 -126 -20 -633 0 -737 2 -10 7 -47 11 -83 4 -36 9 -74
11 -85 2 -11 11 -56 19 -100 82 -451 257 -777 450 -835 220 -67 431 173 554
631 30 109 65 292 77 396 3 26 7 58 9 70 6 37 18 283 18 373 0 86 -11 320 -18
375 -22 177 -31 235 -59 364 -61 283 -176 532 -301 650 -95 90 -194 116 -296
78z"/>
</g>
</svg>
